<?xml version="1.0" encoding="UTF-8" standalone="no"?>
<!DOCTYPE svg PUBLIC "-//W3C//DTD SVG 1.1//EN"
 "http://www.w3.org/Graphics/SVG/1.1/DTD/svg11.dtd">
<!-- Generated by graphviz version 2.40.1 (20161225.0304)
 -->
<!-- Title: %3 Pages: 1 -->
<svg width="168pt" height="126pt"
 viewBox="0.00 0.00 167.50 125.64" xmlns="http://www.w3.org/2000/svg" xmlns:xlink="http://www.w3.org/1999/xlink">
<g id="graph0" class="graph" transform="scale(1 1) rotate(0) translate(4 121.6396)">
<title>%3</title>
<polygon fill="#ffffff" stroke="transparent" points="-4,4 -4,-121.6396 163.5,-121.6396 163.5,4 -4,4"/>
<!-- A -->
<g id="node1" class="node">
<title>A</title>
<polygon fill="#d3d3d3" stroke="#000000" points="23,-117.6396 0,-117.6396 0,-99.6396 23,-99.6396 23,-117.6396"/>
<text text-anchor="middle" x="11.5" y="-106.4396" font-family="Times,serif" font-size="9.00" fill="#000000">A</text>
</g>
<!-- B -->
<g id="node2" class="node">
<title>B</title>
<polygon fill="#d3d3d3" stroke="#000000" points="64,-117.6396 41,-117.6396 41,-99.6396 64,-99.6396 64,-117.6396"/>
<text text-anchor="middle" x="52.5" y="-106.4396" font-family="Times,serif" font-size="9.00" fill="#000000">B</text>
</g>
<!-- action -->
<g id="node5" class="node">
<title>action</title>
<ellipse fill="#add8e6" stroke="#000000" cx="46.5" cy="-31.8198" rx="31.6406" ry="31.6406"/>
<text text-anchor="middle" x="46.5" y="-29.6198" font-family="Times,serif" font-size="9.00" fill="#000000">action</text>
</g>
<!-- B&#45;&gt;action -->
<g id="edge4" class="edge">
<title>B&#45;&gt;action</title>
<path fill="none" stroke="#ff0000" stroke-width=".3348" d="M51.7882,-99.5257C51.2767,-92.9773 50.5468,-83.6319 49.792,-73.9679"/>
<polygon fill="#ff0000" stroke="#ff0000" stroke-width=".3348" points="53.2726,-73.5825 49.0045,-63.8855 46.2939,-74.1277 53.2726,-73.5825"/>
</g>
<!-- 1 -->
<g id="node6" class="node">
<title>1</title>
<ellipse fill="#add8e6" stroke="#000000" cx="112.5" cy="-31.8198" rx="16.0303" ry="16.0303"/>
<text text-anchor="middle" x="112.5" y="-29.6198" font-family="Times,serif" font-size="9.00" fill="#000000">1</text>
</g>
<!-- B&#45;&gt;1 -->
<g id="edge1" class="edge">
<title>B&#45;&gt;1</title>
<path fill="none" stroke="#ff0000" stroke-width=".2445" d="M59.6184,-99.5257C68.5759,-88.0572 84.234,-68.0096 96.1945,-52.6962"/>
<polygon fill="#ff0000" stroke="#ff0000" stroke-width=".2445" points="98.9957,-54.7958 102.3928,-44.7603 93.479,-50.4869 98.9957,-54.7958"/>
</g>
<!-- C -->
<g id="node3" class="node">
<title>C</title>
<polygon fill="#d3d3d3" stroke="#000000" points="117,-117.6396 94,-117.6396 94,-99.6396 117,-99.6396 117,-117.6396"/>
<text text-anchor="middle" x="105.5" y="-106.4396" font-family="Times,serif" font-size="9.00" fill="#000000">C</text>
</g>
<!-- C&#45;&gt;1 -->
<g id="edge3" class="edge">
<title>C&#45;&gt;1</title>
<path fill="none" stroke="#00ff00" stroke-width=".2534" d="M106.3305,-99.5257C107.2482,-89.4544 108.7688,-72.7671 110.0707,-58.4799"/>
<polygon fill="#00ff00" stroke="#00ff00" stroke-width=".2534" points="113.588,-58.4479 111.01,-48.1715 106.6169,-57.8126 113.588,-58.4479"/>
</g>
<!-- D -->
<g id="node4" class="node">
<title>D</title>
<polygon fill="#d3d3d3" stroke="#000000" points="159.5,-117.6396 135.5,-117.6396 135.5,-99.6396 159.5,-99.6396 159.5,-117.6396"/>
<text text-anchor="middle" x="147.5" y="-106.4396" font-family="Times,serif" font-size="9.00" fill="#000000">D</text>
</g>
<!-- D&#45;&gt;1 -->
<g id="edge2" class="edge">
<title>D&#45;&gt;1</title>
<path fill="none" stroke="#00ff00" stroke-width=".2551" d="M143.3476,-99.5257C138.4755,-88.8322 130.2051,-70.6799 123.4536,-55.8614"/>
<polygon fill="#00ff00" stroke="#00ff00" stroke-width=".2551" points="126.6184,-54.3657 119.2873,-46.7168 120.2484,-57.268 126.6184,-54.3657"/>
</g>
</g>
</svg>
